<?xml version="1.0" standalone="no"?>
<!DOCTYPE svg PUBLIC "-//W3C//DTD SVG 20010904//EN"
 "http://www.w3.org/TR/2001/REC-SVG-20010904/DTD/svg10.dtd">
<svg version="1.0" xmlns="http://www.w3.org/2000/svg"
 width="907.000000pt" height="907.000000pt" viewBox="0 0 907.000000 907.000000"
 preserveAspectRatio="xMidYMid meet">
<metadata>
Created by potrace 1.14, written by Peter Selinger 2001-2017
</metadata>
<g transform="translate(0.000000,907.000000) scale(0.100000,-0.100000)"
fill="#000000" stroke="none">
<path d="M10 8545 c0 -35 101 -388 172 -605 114 -345 211 -586 280 -697 54
-87 206 -252 283 -309 87 -63 124 -86 530 -317 231 -131 434 -247 450 -257 49
-28 668 -382 700 -400 67 -37 743 -425 867 -496 257 -148 367 -214 373 -223 3
-6 -36 10 -87 33 -51 24 -129 60 -173 81 -199 91 -387 183 -745 362 -408 204
-447 224 -850 441 -265 142 -814 457 -1073 616 -131 79 -157 93 -152 74 7 -21
438 -806 529 -963 49 -84 181 -220 251 -258 132 -73 285 -122 455 -146 41 -6
86 -13 100 -15 28 -5 165 -26 195 -30 11 -2 34 -6 50 -9 31 -7 58 -12 130 -22
22 -4 117 -20 210 -36 94 -16 186 -32 205 -35 19 -3 98 -16 175 -29 77 -14
156 -27 175 -30 19 -3 42 -8 50 -10 8 -2 33 -6 55 -10 169 -24 474 -82 485
-92 4 -4 -192 4 -275 12 -27 2 -86 7 -130 11 -44 3 -100 8 -125 10 -25 2 -76
6 -115 9 -38 3 -88 8 -110 10 -22 2 -92 9 -155 15 -63 6 -149 15 -190 20 -41
5 -100 12 -130 15 -69 8 -366 45 -400 50 -14 2 -50 7 -80 10 -30 3 -62 8 -70
10 -8 2 -37 6 -65 10 -67 8 -115 15 -145 20 -14 3 -47 7 -75 10 -27 4 -76 11
-109 16 -32 6 -59 9 -61 7 -2 -2 79 -72 180 -156 101 -85 191 -161 202 -170
10 -10 63 -56 118 -104 55 -47 109 -95 120 -105 121 -114 198 -154 310 -160
97 -6 104 -4 375 85 196 64 274 90 570 184 433 138 483 150 305 70 -291 -129
-510 -251 -620 -344 -11 -9 -31 -26 -45 -38 -70 -60 -187 -181 -217 -226 -99
-149 -96 -298 9 -454 60 -88 248 -340 344 -461 38 -47 81 -101 96 -120 14 -19
36 -45 48 -59 12 -14 31 -36 42 -50 l19 -25 -6 30 c-35 156 -47 266 -51 440
-4 245 15 383 82 585 84 254 234 491 441 700 l65 65 -100 -195 c-223 -435
-324 -775 -316 -1060 3 -123 8 -153 39 -237 33 -93 82 -168 156 -241 l67 -66
-26 -40 c-122 -196 -364 -448 -577 -603 -75 -54 -254 -173 -260 -173 -11 0
-155 -94 -151 -98 6 -6 433 -6 471 1 118 18 235 78 321 164 107 107 256 354
331 546 l28 74 44 -39 c39 -34 43 -41 33 -61 -6 -12 -32 -71 -58 -132 -91
-208 -188 -372 -330 -560 -83 -111 -103 -133 -223 -259 l-66 -68 105 5 c145 8
254 49 361 139 34 29 109 130 129 175 68 151 137 371 155 493 3 25 8 54 10 65
2 11 4 35 4 53 l1 33 25 -19 c14 -11 76 -68 138 -125 61 -58 123 -115 137
-127 23 -20 75 -67 179 -164 l43 -41 -72 140 c-243 471 -426 1032 -486 1495
-2 19 -9 62 -14 95 -5 33 -12 89 -15 125 -3 36 -8 79 -10 95 -14 97 -25 547
-14 585 5 16 8 19 8 7 1 -15 143 -487 332 -1102 22 -71 56 -182 75 -245 79
-262 258 -800 265 -793 6 7 114 351 124 397 3 11 14 47 24 80 22 66 117 378
157 516 14 47 42 141 64 210 21 69 55 179 75 245 20 66 74 244 121 396 46 152
84 285 85 295 1 15 3 14 8 -5 8 -30 6 -277 -4 -431 -4 -63 -9 -131 -10 -150
-4 -58 -17 -171 -30 -255 -3 -22 -7 -53 -10 -70 -7 -58 -16 -111 -30 -180 -8
-38 -17 -84 -20 -102 -28 -163 -178 -657 -240 -788 -7 -16 -29 -68 -49 -115
-19 -47 -57 -131 -85 -188 -28 -56 -51 -104 -51 -106 0 -2 -16 -32 -35 -66
-20 -35 -34 -64 -33 -66 4 -3 55 42 200 178 65 61 126 118 136 127 26 22 202
183 218 199 8 7 14 10 15 5 0 -4 2 -15 3 -23 2 -8 7 -46 10 -85 18 -169 91
-425 166 -578 92 -189 250 -301 460 -325 36 -4 81 -6 101 -4 l36 3 -71 72
c-253 258 -442 547 -581 890 l-49 119 37 34 c19 19 40 34 46 34 5 0 17 -24 26
-52 30 -92 150 -329 223 -438 136 -205 276 -304 464 -329 44 -5 178 -6 427 -2
45 1 41 5 -104 92 -282 170 -486 334 -660 530 -83 92 -235 306 -235 329 0 6
15 30 34 53 53 65 112 183 141 282 56 192 36 412 -66 716 -75 222 -209 522
-296 661 -28 46 -32 78 -6 57 18 -15 176 -192 207 -230 141 -181 266 -446 317
-673 20 -91 22 -103 37 -206 9 -69 9 -354 -1 -440 -10 -91 -33 -227 -44 -265
-3 -11 34 30 82 90 436 552 502 647 530 769 34 146 -12 269 -157 416 -169 172
-387 314 -686 449 -116 52 -232 115 -177 96 11 -4 49 -15 85 -25 323 -90 809
-243 935 -295 189 -77 271 -90 383 -61 78 21 129 55 280 188 75 66 148 130
162 142 63 53 227 193 245 207 101 83 164 142 159 150 -3 5 -8 7 -12 5 -4 -2
-56 -11 -117 -20 -60 -9 -121 -18 -135 -20 -14 -3 -61 -10 -105 -16 -44 -6
-91 -13 -105 -16 -14 -2 -79 -11 -145 -20 -66 -8 -131 -17 -145 -19 -14 -2
-50 -6 -80 -10 -30 -3 -71 -8 -91 -11 -20 -2 -56 -6 -80 -9 -24 -2 -64 -7 -89
-9 -25 -3 -70 -8 -100 -11 -30 -4 -66 -8 -80 -10 -14 -2 -56 -7 -95 -10 -38
-3 -95 -8 -125 -10 -136 -13 -160 -15 -236 -20 -137 -11 -185 -14 -294 -20
-58 -3 -120 -7 -138 -9 -18 -1 -35 1 -37 4 -2 4 1 7 8 7 7 1 89 15 182 32 94
17 182 33 198 36 15 3 39 7 55 10 15 3 55 10 89 15 34 6 68 12 75 15 7 2 31 7
53 10 22 3 76 12 120 20 44 8 98 17 120 20 22 3 51 8 65 10 106 18 273 45 310
50 25 4 54 8 65 10 11 2 39 7 63 10 24 4 49 8 55 9 7 2 35 6 62 10 28 4 61 10
75 12 14 2 115 20 225 39 230 39 224 38 290 60 136 46 270 140 343 240 43 59
217 361 392 680 18 33 63 114 100 180 88 158 112 206 107 212 -3 2 -98 -51
-211 -119 -113 -68 -221 -131 -238 -142 -18 -10 -89 -51 -158 -91 -185 -108
-513 -290 -700 -390 -91 -48 -194 -103 -230 -123 -76 -41 -727 -366 -815 -407
-33 -16 -121 -57 -195 -92 -74 -36 -209 -99 -299 -140 -91 -41 -173 -79 -183
-84 -10 -5 -18 -8 -18 -5 0 4 267 167 305 186 6 3 36 21 68 40 33 19 73 43 90
54 18 10 73 42 124 72 51 30 95 54 99 54 4 0 15 6 23 14 9 7 36 25 61 38 25
14 158 89 295 168 138 79 265 151 283 162 17 10 47 26 65 37 17 10 102 58 187
106 85 48 220 125 300 170 187 107 217 123 265 150 39 21 394 219 465 258 100
55 132 76 215 138 202 151 357 345 445 558 45 110 145 414 256 776 15 50 42
135 59 190 18 55 31 103 28 108 -12 21 -39 -4 -117 -110 -189 -257 -294 -380
-511 -599 -339 -343 -687 -613 -1160 -901 -93 -57 -177 -108 -185 -113 -8 -4
-116 -68 -239 -142 -124 -73 -244 -144 -268 -158 -270 -157 -805 -474 -865
-512 -198 -127 -341 -354 -470 -747 -17 -53 -33 -98 -35 -100 -9 -12 -91 127
-128 217 -42 104 -54 183 -51 357 1 144 -1 167 -22 229 -59 176 -188 287 -407
351 -164 48 -279 38 -385 -34 -43 -30 -70 -40 -116 -45 -158 -18 -227 -65
-243 -165 -9 -59 -3 -73 29 -65 14 3 56 6 94 6 136 -1 236 -82 266 -218 52
-228 -77 -504 -280 -601 -36 -17 -77 -34 -91 -37 -30 -7 -26 -16 -88 164 -57
167 -61 177 -109 269 -132 258 -276 400 -562 558 -352 193 -1406 822 -1631
974 -152 103 -310 218 -439 323 -74 60 -90 73 -199 171 -82 73 -329 319 -401
400 -107 119 -303 367 -374 473 -26 38 -66 73 -66 57z m4393 -2371 c20 -4 40
-11 44 -17 3 -5 2 -7 -4 -4 -5 3 -35 7 -66 8 -42 2 -57 6 -57 17 0 10 7 12 23
8 12 -3 39 -9 60 -12z"/>
<path d="M4074 2783 c8 -21 25 -63 39 -94 59 -133 78 -289 47 -384 -71 -219
-332 -534 -633 -762 -101 -77 -343 -235 -416 -272 -22 -12 -41 -23 -41 -24 0
-2 120 -3 268 -2 292 1 311 4 419 66 142 81 354 389 456 664 49 131 97 315 97
372 0 134 -73 293 -193 422 -26 28 -50 51 -52 51 -2 0 2 -17 9 -37z"/>
<path d="M4950 2777 c-113 -103 -191 -272 -195 -422 -4 -139 98 -439 228 -664
158 -276 288 -394 487 -441 63 -15 506 -19 504 -4 -1 5 -69 50 -153 101 -285
174 -477 332 -659 542 -81 95 -198 263 -229 331 -65 141 -64 282 2 441 26 61
54 126 62 142 9 17 -14 4 -47 -26z"/>
<path d="M4652 2055 c1 -85 4 -176 8 -202 4 -27 10 -71 14 -99 16 -138 103
-420 164 -534 118 -218 308 -322 570 -311 19 1 15 8 -35 58 -157 156 -315 357
-399 508 -6 11 -28 49 -49 85 -84 146 -185 384 -240 563 -14 48 -28 87 -30 87
-2 0 -3 -70 -3 -155z"/>
<path d="M4316 1971 c-229 -531 -346 -720 -596 -969 -49 -49 -76 -83 -70 -87
7 -4 42 -7 80 -7 161 0 333 89 436 226 26 33 50 70 54 81 4 11 19 45 33 75 50
109 110 312 131 440 26 155 42 415 27 438 -3 5 -46 -84 -95 -197z"/>
<path d="M4512 1797 c-18 -73 -15 -58 -71 -317 -27 -129 -53 -251 -56 -270 -3
-19 -11 -55 -16 -80 -11 -50 -13 -164 -4 -225 20 -126 83 -284 143 -354 l28
-34 46 79 c47 82 94 201 104 262 3 19 8 44 10 56 6 30 5 165 -1 201 -7 39 -61
301 -80 385 -8 36 -26 124 -41 195 -32 157 -44 176 -62 102z"/>
</g>
</svg>
